<svg xmlns="http://www.w3.org/2000/svg" viewBox="0 0 140 160" width="140" height="160" fill="none">
  <ellipse cx="70" cy="150" rx="28" ry="5" fill="#0f766e" opacity=".2"/>
  <path d="M58 106c0 14 2 28 6 36M82 106c0 14-2 28-6 36" stroke="#1e293b" stroke-width="3.4" stroke-linecap="round"/>
  <path d="M54 100h32l-2 12H56z" fill="#0f172a"/>
  <path d="M50 70h40l-3 32H53z" fill="#020617" stroke="#1e293b" stroke-width="2.2"/>
  <path d="M70 70v32" stroke="#f8fafc" stroke-width="2.2"/>
  <path d="M58 82h8M74 82h8" stroke="#eab308" stroke-width="2.2" stroke-linecap="round"/>
  <path d="M62 70l8 9 8-9" fill="#f8fafc" stroke="#1e293b" stroke-width="1.6"/>
  <circle cx="70" cy="46" r="20" fill="#fde68a" stroke="#1e293b" stroke-width="2.4"/>
  <path d="M48 44c4-20 18-30 30-28 12 2 20 14 16 28" fill="#fde047" stroke="#1e293b" stroke-width="2.2"/>
  <path d="M80 24c10-8 20-2 22 10" fill="#facc15" stroke="#1e293b" stroke-width="1.8"/>
  <path d="M54 40c5-10 12-8 10 2" fill="none" stroke="#1e293b" stroke-width="2.8" stroke-linecap="round"/>
  <path d="M61 35c3 2 2 6-1 6" fill="none" stroke="#1e293b" stroke-width="2"/>
  <path d="M78 42h12" stroke="#1e293b" stroke-width="2.4" stroke-linecap="round"/>
  <circle cx="62" cy="50" r="2.7" fill="#1e293b"/>
  <circle cx="82" cy="50" r="2.7" fill="#1e293b"/>
  <path d="M64 58c6 4 14 3 16-2" stroke="#1e293b" stroke-width="2.3" stroke-linecap="round"/>
  <path d="M104 80v44" stroke="#78350f" stroke-width="3.5" stroke-linecap="round"/>
  <rect x="94" y="58" width="20" height="24" rx="3" fill="#fbbf24" stroke="#1e293b" stroke-width="2.1"/>
  <path d="M90 80c10 2 14 10 14 16" stroke="#fde68a" stroke-width="7.5" stroke-linecap="round"/>
  <path d="M90 80c10 2 14 10 14 16" stroke="#1e293b" stroke-width="2"/>
  <path d="M50 80c-9 6-11 16-6 22" stroke="#fde68a" stroke-width="7.5" stroke-linecap="round"/>
  <path d="M50 80c-9 6-11 16-6 22" stroke="#1e293b" stroke-width="2"/>
</svg>
